# AST/ASF file generated using VICON BodyLanguage
# -----------------------------------------------
:version 1.10
:name VICON
:units
  mass 1.0
  length 0.45
  angle deg
:documentation
   .ast/.asf automatically generated from VICON data using
   VICON BodyBuilder and BodyLanguage model FoxedUp or BRILLIANT.MOD
:root
   order TX TY TZ RX RY RZ
   axis XYZ
   position 0 0 0  
   orientation 0 0 0 
:bonedata
  begin
     id 1 
     name lhipjoint
     direction 0.547975 -0.797114 0.253638 
     length 2.36201 
     axis 0 0 0  XYZ
  end
  begin
     id 2 
     name lfemur
     direction 0.34202 -0.939693 0  
     length 7.69075  
     axis 0 0 20  XYZ
    dof rx ry rz
    limits (-160.0 20.0)
           (-70.0 70.0)
           (-60.0 70.0)
  end
  begin
     id 3 
     name ltibia
     direction 0.34202 -0.939693 0   
     length 7.91399   
     axis 0 0 20   XYZ
    dof rx
    limits (-10.0 170.0)
  end
  begin
     id 4 
     name lfoot
     direction 0.0705293 -0.193778 0.978507   
     length 2.13618   
     axis -90 7.62852e-016 20   XYZ
    dof rx rz
    limits (-45.0 90.0)
           (-70.0 20.0)
  end
  begin
     id 5 
     name ltoes
     direction 1.53592e-011 -4.21925e-011 1   
     length 1.07518   
     axis -90 7.62852e-016 20   XYZ
    dof rx
    limits (-90.0 20.0)
  end
  begin
     id 6 
     name rhipjoint
     direction -0.57 -0.782963 0.249136   
     length 2.4047  
     axis 0 0 0  XYZ 
  end
  begin
     id 7 
     name rfemur
     direction -0.34202 -0.939693 0   
     length 7.51486   
     axis 0 0 -20   XYZ
    dof rx ry rz
    limits (-160.0 20.0)
           (-70.0 70.0)
           (-70.0 60.0)
  end
  begin
     id 8 
     name rtibia
     direction -0.34202 -0.939693 0   
     length 8.08317   
     axis 0 0 -20   XYZ
    dof rx
    limits (-10.0 170.0)
 end
 begin
     id 9 
     name rfoot
     direction -0.104954 -0.281256 0.953876   
     length 2.30343  
     axis -90 -7.62852e-016 -20   XYZ
    dof rx rz
    limits (-45.0 90.0)
           (-20.0 70.0)
  end
  begin
     id 10 
     name rtoes
     direction -1.53556e-011 -4.21922e-011 1   
     length 1.14803   
     axis -90 -7.62852e-016 -20   XYZ
    dof rx
    limits (-90.0 20.0)
  end
  begin
     id 11 
     name lowerback
     direction -0.0152855 0.99353 -0.11254   
     length 2.05311   
     axis 0 0 0   XYZ
    dof rx ry rz
    limits (-20.0 45.0)
           (-30.0 30.0)
           (-30.0 30.0)
  end
  begin
     id 12 
     name upperback
     direction -0.00157509 0.999443 -0.033332   
     length 2.06353   
     axis 0 0 0   XYZ
    dof rx ry rz
    limits (-20.0 45.0)
           (-30.0 30.0)
           (-30.0 30.0)
  end
  begin
     id 13 
     name thorax
     direction 0.00577788 0.999804 0.0189484   
     length 2.08472   
     axis 0 0 0   XYZ
    dof rx ry rz
    limits (-20.0 45.0)
           (-30.0 30.0)
           (-30.0 30.0)
  end
  begin
     id 14 
     name lowerneck
     direction -1.09301e-005 0.994719 0.10264   
     length 1.76249   
     axis 0 0 0   XYZ
    dof rx ry rz
    limits (-20.0 45.0)
           (-30.0 30.0)
           (-30.0 30.0)
  end
  begin
     id 15 
     name upperneck
     direction 0.0495018 0.988526 -0.142706   
     length 1.77897   
     axis 0 0 0   XYZ
    dof rx ry rz
    limits (-20.0 45.0)
           (-30.0 30.0)
           (-30.0 30.0)
  end
  begin
     id 16
     name head
     direction 0.0142736 0.998114 -0.0597101  
     length 1.78934  
     axis 0 0 0   XYZ
    dof rx ry rz
    limits (-20.0 45.0)
           (-30.0 30.0)
           (-30.0 30.0)
  end
  begin
     id 17 
     name lclavicle
     direction 0.918111 0.396107 -0.0130883  
     length 3.37276  
     axis 0 0 0   XYZ
    dof ry rz
    limits (-20.0 10.0)
           (0.0 20.0)
  end
  begin
     id 18 
     name lhumerus
     direction 1 -4.48975e-011 -3.26108e-027   
     length 5.34298   
     axis 180 -30 -90   XYZ
    dof rx ry rz
    limits (-60.0 90.0)
           (-90.0 90.0)
           (-90.0 90.0)
  end
  begin
     id 19
     name lradius
     direction 1 -4.48964e-011 -8.84413e-028   
     length 3.67262   
     axis 180 -30 -90   XYZ
    dof rx
    limits (-10.0 170.0)
  end
  begin
     id 20
     name lwrist
     direction 1 -4.48991e-011 -1.24264e-027   
     length 1.83631   
     axis -2.17013e-015 90 90   XYZ
    dof ry
    limits (-180.0 0.0)
 end
  begin
     id 21 
     name lhand
     direction 1 -4.48855e-011 -2.48528e-027   
     length 0.599298   
     axis 1.58582e-015 90 90   XYZ
    dof rx rz
    limits (-90.0 90.0)
           (-45.0 45.0)
  end
  begin
     id 22 
     name lfingers
     direction 1 -4.48811e-011 -4.97056e-027   
     length 0.48317   
     axis 3.17164e-015 90 90   XYZ
    dof rx
    limits (0.0 90.0)
  end
  begin
     id 23
     name lthumb
     direction 0.707107 -6.34882e-011 0.707107   
     length 0.693738   
     axis -90 45 2.85299e-015   XYZ
    dof rx rz
    limits (-45.0 45.0)
           (-45.0 45.0)
  end
  begin
     id 24 
     name rclavicle
     direction -0.920511 0.384752 -0.0680135   
     length 3.43787  
     axis 0 0 0   XYZ 
    dof ry rz
    limits (-10.0 20.0)
           (-20.0 0.0)
  end
  begin
     id 25 
     name rhumerus
     direction -0.999976 -0.00330524 0.00603274  
     length 5.5498   
     axis 180 30 90   XYZ
    dof rx ry rz
    limits (-90.0 60.0)
           (-90.0 90.0)
           (-90.0 90.0)
  end
  begin
     id 26 
     name rradius
     direction -1 -4.48967e-011 8.62438e-027   
     length 3.69401   
     axis 180 30 90   XYZ
    dof rx
    limits (-10.0 170.0)
  end
  begin
     id 27 
     name rwrist
     direction -1 -4.4897e-011 9.54866e-027   
     length 1.84701   
     axis -7.69462e-015 -90 -90   XYZ
    dof ry
    limits (-180.0 0.0)
  end
  begin
     id 28
     name rhand
     direction -1 -4.48982e-011 1.90973e-026   
     length 0.638113   
     axis -1.21857e-014 -90 -90   XYZ
    dof rx rz
    limits (-90.0 90.0)
           (-45.0 45.0)
  end
  begin
     id 29
     name rfingers
     direction -1 -4.48936e-011 3.81946e-026   
     length 0.514463   
     axis -2.43714e-014 -90 -90   XYZ
    dof rx
    limits (0.0 90.0)
  end
  begin
     id 30
     name rthumb
     direction -0.707107 -6.34942e-011 0.707107   
     length 0.738669   
     axis -90 -45 -2.85299e-015   XYZ
    dof rx rz
    limits (-45.0 45.0)
           (-45.0 45.0)
  end
:hierarchy
  begin
    root lhipjoint rhipjoint lowerback
    lhipjoint lfemur
    lfemur ltibia
    ltibia lfoot
    lfoot ltoes
    rhipjoint rfemur
    rfemur rtibia
    rtibia rfoot
    rfoot rtoes
    lowerback upperback
    upperback thorax
    thorax lowerneck lclavicle rclavicle
    lowerneck upperneck
    upperneck head
    lclavicle lhumerus
    lhumerus lradius
    lradius lwrist
    lwrist lhand lthumb
    lhand lfingers
    rclavicle rhumerus
    rhumerus rradius
    rradius rwrist
    rwrist rhand rthumb
    rhand rfingers
  end

#!OML:ASF F:\twosubjects\two\Thursday\Session 1\Rory.ASF
:FULLY-SPECIFIED
:DEGREES
161
root 6.93524 17.1433 4.84042 214.156 0.486057 178.167
lowerback 23.0946 0.547344 -2.85413
upperback 6.17127 -1.1753 -1.04438
thorax -6.08396 -1.00982 0.873462
lowerneck -8.46328 -2.99353 -4.29599
upperneck -12.9842 -1.93928 7.10595
head -2.60855 -0.326451 3.06092
rclavicle 1.31198e-014 9.74045e-015
rhumerus 8.94762 26.2382 -77.4385
rradius 69.6468
rwrist 24.6525
rhand -54.5157 14.8607
rfingers 7.12502
rthumb -26.9169 -13.2425
lclavicle 1.31198e-014 9.74045e-015
lhumerus 4.62175 -21.9511 75.3841
lradius 73.9237
lwrist -31.283
lhand -7.781 -92.7334
lfingers 7.12502
lthumb 18.1196 598.091
rfemur -43.1918 -9.38662 4.02306
rtibia 42.2701
rfoot -22.2337 -19.8174
rtoes -17.7556
lfemur -33.9114 11.2846 -8.09641
ltibia 33.4245
lfoot -22.2494 6.77333
ltoes -25.0418
162
root 6.92601 17.1145 4.72783 214.452 0.701286 178.418
lowerback 22.5763 -0.770627 -3.10268
upperback 6.08045 -0.683043 -1.21403
thorax -5.88531 0.139397 0.596928
lowerneck -8.5809 -2.96326 -4.27892
upperneck -12.4496 -1.98706 7.01373
head -2.40363 -0.375188 3.01399
rclavicle -1.94809e-014 -2.22639e-014
rhumerus 7.92969 26.4006 -77.7496
rradius 69.9704
rwrist 24.7151
rhand -55.4633 15.8025
rfingers 7.12502
rthumb -27.8232 -12.1575
lclavicle -1.94809e-014 -2.22639e-014
lhumerus 3.7229 -22.8994 75.4907
lradius 74.0456
lwrist -29.4758
lhand -25.5667 73.437
lfingers 7.12502
lthumb 0.964206 616.585
rfemur -43.2436 -9.17446 4.16614
rtibia 42.1177
rfoot -22.8293 -19.8094
rtoes -16.093
lfemur -33.5446 11.2625 -7.90565
ltibia 33.1937
lfoot -22.8126 7.29572
ltoes -24.37
163
root 6.9188 17.1013 4.61329 214.378 0.978459 178.349
lowerback 22.6286 -0.751168 -3.26563
upperback 6.10034 -0.691267 -1.22501
thorax -5.8863 0.138475 0.680124
lowerneck -8.77846 -2.89908 -4.24063
upperneck -12.1394 -1.95703 6.75966
head -2.2685 -0.367763 2.91153
rclavicle -1.66979e-014 -1.70955e-014
rhumerus 6.73335 26.7809 -78.0307
rradius 70.6491
rwrist 24.9255
rhand -55.9669 15.5253
rfingers 7.12502
rthumb -28.3046 -12.3559
lclavicle -1.66979e-014 -1.70955e-014
lhumerus 2.89415 -23.2375 75.7104
lradius 74.2144
lwrist -29.1456
lhand -26.3434 74.9455
lfingers 7.12502
lthumb 0.214116 615.075
rfemur -42.9061 -9.31519 4.05086
rtibia 41.9736
rfoot -20.0044 -21.5316
rtoes -27.4467
lfemur -32.8603 11.0148 -8.07008
ltibia 32.9667
lfoot -23.1753 8.41058
ltoes -24.9594
164
root 6.91782 17.1008 4.49458 213.965 1.19863 178.223
lowerback 23.175 -0.676463 -3.5485
upperback 6.17151 -0.63905 -1.18868
thorax -6.08176 0.183208 0.866164
lowerneck -8.81897 -2.8659 -4.28668
upperneck -11.9813 -1.93719 6.70457
head -2.20961 -0.36325 2.89841
rclavicle -4.37326e-015 -4.96962e-015
rhumerus 5.32783 26.9272 -78.4969
rradius 71.3718
rwrist 25.039
rhand -55.9626 15.9365
rfingers 7.12502
rthumb -28.3005 -11.9454
lclavicle -4.37326e-015 -4.96962e-015
lhumerus 1.9108 -22.8802 76.3499
lradius 74.6276
lwrist -30.4014
lhand -25.1607 73.9741
lfingers 7.12502
lthumb 1.35631 616.05
rfemur -42.0224 -9.42257 3.85208
rtibia 41.7603
rfoot -19.6382 -21.7132
rtoes -30.7742
lfemur -32.0085 10.959 -8.43711
ltibia 32.7101
lfoot -22.705 10.579
ltoes -30.0039
165
root 6.92241 17.0941 4.38203 213.736 1.20786 178.232
lowerback 23.5298 -0.643813 -3.61631
upperback 6.26788 -0.585793 -1.10473
thorax -6.15568 0.222496 0.980825
lowerneck -8.8995 -2.85637 -4.2633
upperneck -11.8786 -1.93533 6.69961
head -2.16165 -0.365228 2.8897
rclavicle 5.96354e-015 -4.37326e-015
rhumerus 4.06341 26.9817 -78.9072
rradius 71.9322
rwrist 25.058
rhand -56.4541 17.4984
rfingers 7.12502
rthumb -28.7701 -10.3046
lclavicle 5.96354e-015 -4.37326e-015
lhumerus 0.764035 -23.4374 76.9267
lradius 75.3241
lwrist -29.581
lhand -26.7572 76.4432
lfingers 7.12502
lthumb -0.185544 613.577
rfemur -41.3109 -9.39544 3.82491
rtibia 41.6282
rfoot -20.5899 -21.2861
rtoes -29.3979
lfemur -30.9848 10.418 -8.23107
ltibia 32.4209
lfoot -23.8035 9.75037
ltoes -22.9977
166
root 6.92276 17.1031 4.24299 213.795 1.28092 178.548
lowerback 23.3084 -0.649354 -3.44503
upperback 6.45446 -0.508219 -0.995203
thorax -5.84411 0.259443 0.980792
lowerneck -9.19297 -2.83927 -4.26646
upperneck -11.9132 -1.87854 6.65728
head -2.12675 -0.319597 2.87319
rclavicle 7.95139e-016 2.5842e-015
rhumerus 3.89823 27.4255 -78.8166
rradius 71.8397
rwrist 24.5815
rhand -57.3859 18.9025
rfingers 7.12502
rthumb -29.6599 -8.74578
lclavicle 7.95139e-016 2.5842e-015
lhumerus -0.126439 -23.4427 77.2959
lradius 75.9048
lwrist -29.4363
lhand -28.0664 76.9182
lfingers 7.12502
lthumb -1.45003 613.107
rfemur -40.7733 -9.2068 4.08156
rtibia 41.3903
rfoot -21.4821 -20.8186
rtoes -27.531
lfemur -30.6981 10.7462 -8.2106
ltibia 32.2333
lfoot -22.5386 11.8718
ltoes -29.3221
167
root 6.93833 17.0984 4.13312 214.048 0.947358 178.279
lowerback 23.2926 -0.783824 -3.56518
upperback 6.50107 -0.691073 -0.853235
thorax -5.77218 0.172151 1.25337
lowerneck -9.63587 -2.88331 -4.55207
upperneck -11.7828 -1.88414 6.74004
head -2.00452 -0.296088 2.94714
rclavicle 1.39149e-014 5.1684e-015
rhumerus 3.18404 27.8918 -78.843
rradius 72.2582
rwrist 24.1747
rhand -58.2711 19.693
rfingers 7.12502
rthumb -30.5044 -7.80177
lclavicle 1.39149e-014 5.1684e-015
lhumerus -0.917674 -23.2148 77.6933
lradius 76.2723
lwrist -29.6286
lhand -29.1966 76.3479
lfingers 7.12502
lthumb -2.54156 613.688
rfemur -40.3039 -9.4763 4.04265
rtibia 41.1368
rfoot -21.9475 -20.9514
rtoes -26.852
lfemur -30.4166 10.2837 -8.11329
ltibia 32.1903
lfoot -23.7417 9.35592
ltoes -19.9842
168
root 6.95308 17.0842 4.01695 214.273 0.830267 178.107
lowerback 23.1662 -0.752796 -3.66656
upperback 6.54016 -0.661695 -0.839527
thorax -5.66371 0.185922 1.31761
lowerneck -9.61524 -2.99826 -4.5297
upperneck -11.8697 -2.02789 6.77817
head -2.02792 -0.364745 2.95468
rclavicle -2.78299e-014 -1.94809e-014
rhumerus 2.89443 27.9838 -78.9618
rradius 72.1051
rwrist 23.8049
rhand -58.7549 20.4963
rfingers 7.12502
rthumb -30.9657 -6.91168
lclavicle -2.78299e-014 -1.94809e-014
lhumerus -1.61439 -23.5095 77.9912
lradius 76.4358
lwrist -29.5934
lhand -28.6651 76.2949
lfingers 7.12502
lthumb -2.02829 613.735
rfemur -39.8167 -9.21098 3.87059
rtibia 40.7663
rfoot -21.9954 -21.6918
rtoes -27.3914
lfemur -30.2819 10.5719 -8.32132
ltibia 32.2427
lfoot -23.8744 8.39692
ltoes -18.507
169
root 6.95982 17.0684 3.88115 214.7 1.00626 178.375
lowerback 22.5209 -0.580529 -3.5639
upperback 6.62168 -0.39823 -0.836619
thorax -5.26169 0.29898 1.1918
lowerneck -9.5268 -3.07539 -4.20984
upperneck -12.121 -2.13786 6.60929
head -2.12453 -0.420564 2.83982
rclavicle -1.47101e-014 -8.24956e-015
rhumerus 2.25001 27.7906 -79.4099
rradius 72.1434
rwrist 24.0028
rhand -58.6222 22.7448
rfingers 7.12502
rthumb -30.8392 -4.68716
lclavicle -1.47101e-014 -8.24956e-015
lhumerus -2.14983 -23.8857 78.2623
lradius 76.5074
lwrist -29.5981
lhand -26.3074 77.1618
lfingers 7.12502
lthumb 0.248845 612.859
rfemur -39.6143 -8.41815 3.86402
rtibia 40.3477
rfoot -22.1512 -22.2717
rtoes -27.5085
lfemur -30.2972 11.239 -8.35976
ltibia 32.3544
lfoot -23.6559 8.3452
ltoes -19.4144
